<svg width="288" height="14" viewBox="0 0 288 14" fill="none" xmlns="http://www.w3.org/2000/svg">
<rect x="273.231" y="14" width="14" height="14.7688" transform="rotate(-90 273.231 14)" fill="#98EC65" fill-opacity="0.12"/>
<rect x="242.872" y="14" width="14" height="14.7688" transform="rotate(-90 242.872 14)" fill="#5F5F5F" fill-opacity="0.12"/>
<rect x="212.513" y="14" width="14" height="14.7688" transform="rotate(-90 212.513 14)" fill="#5F5F5F" fill-opacity="0.12"/>
<rect x="182.154" y="14" width="14" height="14.7688" transform="rotate(-90 182.154 14)" fill="#5F5F5F" fill-opacity="0.12"/>
<rect x="151.795" y="14" width="14" height="14.7688" transform="rotate(-90 151.795 14)" fill="#5F5F5F" fill-opacity="0.12"/>
<rect x="121.436" y="14" width="14" height="14.7688" transform="rotate(-90 121.436 14)" fill="#5F5F5F" fill-opacity="0.12"/>
<rect x="91.0771" y="14" width="14" height="14.7688" transform="rotate(-90 91.0771 14)" fill="#5F5F5F" fill-opacity="0.12"/>
<rect x="60.718" y="14" width="14" height="14.7688" transform="rotate(-90 60.718 14)" fill="#5F5F5F" fill-opacity="0.12"/>
<rect x="30.3591" y="14" width="14" height="14.7688" transform="rotate(-90 30.3591 14)" fill="#5F5F5F" fill-opacity="0.12"/>
<rect y="14" width="14" height="14.7688" transform="rotate(-90 0 14)" fill="#5F5F5F" fill-opacity="0.12"/>
</svg>
