<svg width="288" height="14" viewBox="0 0 288 14" fill="none" xmlns="http://www.w3.org/2000/svg">
<rect x="14.7688" width="14" height="14.7688" transform="rotate(90 14.7688 0)" fill="#98EC65" fill-opacity="0.12"/>
<rect x="45.1277" width="14" height="14.7688" transform="rotate(90 45.1277 0)" fill="#5F5F5F" fill-opacity="0.12"/>
<rect x="75.4868" width="14" height="14.7688" transform="rotate(90 75.4868 0)" fill="#5F5F5F" fill-opacity="0.12"/>
<rect x="105.846" width="14" height="14.7688" transform="rotate(90 105.846 0)" fill="#5F5F5F" fill-opacity="0.12"/>
<rect x="136.205" width="14" height="14.7688" transform="rotate(90 136.205 0)" fill="#5F5F5F" fill-opacity="0.12"/>
<rect x="166.564" width="14" height="14.7688" transform="rotate(90 166.564 0)" fill="#5F5F5F" fill-opacity="0.12"/>
<rect x="196.923" width="14" height="14.7688" transform="rotate(90 196.923 0)" fill="#5F5F5F" fill-opacity="0.12"/>
<rect x="227.282" width="14" height="14.7688" transform="rotate(90 227.282 0)" fill="#5F5F5F" fill-opacity="0.12"/>
<rect x="257.641" width="14" height="14.7688" transform="rotate(90 257.641 0)" fill="#5F5F5F" fill-opacity="0.12"/>
<rect x="288" width="14" height="14.7688" transform="rotate(90 288 0)" fill="#5F5F5F" fill-opacity="0.12"/>
</svg>
