<svg width="260" height="154" viewBox="0 0 260 154" fill="none" xmlns="http://www.w3.org/2000/svg">
<rect x="15.6653" width="14" height="14.7688" transform="rotate(90 15.6653 0)" fill="#98EC65" fill-opacity="0.12"/>
<rect x="50.4341" width="14" height="14.7688" transform="rotate(90 50.4341 0)" fill="#5F5F5F" fill-opacity="0.12"/>
<rect x="85.2028" width="14" height="14.7688" transform="rotate(90 85.2028 0)" fill="#5F5F5F" fill-opacity="0.12"/>
<rect x="119.972" width="14" height="14.7688" transform="rotate(90 119.972 0)" fill="#5F5F5F" fill-opacity="0.12"/>
<rect x="154.74" width="14" height="14.7688" transform="rotate(90 154.74 0)" fill="#5F5F5F" fill-opacity="0.12"/>
<rect x="189.509" width="14" height="14.7688" transform="rotate(90 189.509 0)" fill="#5F5F5F" fill-opacity="0.12"/>
<rect x="224.278" width="14" height="14.7688" transform="rotate(90 224.278 0)" fill="#5F5F5F" fill-opacity="0.12"/>
<rect x="259.047" width="14" height="14.7688" transform="rotate(90 259.047 0)" fill="#5F5F5F" fill-opacity="0.12"/>
<rect x="244.852" y="138.295" width="14" height="14.7688" fill="#98EC65" fill-opacity="0.12"/>
<rect x="244.852" y="103.526" width="14" height="14.7688" fill="#5F5F5F" fill-opacity="0.12"/>
<rect x="244.852" y="68.7578" width="14" height="14.7688" fill="#5F5F5F" fill-opacity="0.12"/>
<rect x="244.852" y="33.9888" width="14" height="14.7688" fill="#5F5F5F" fill-opacity="0.12"/>
</svg>
