<svg width="328" height="14" viewBox="0 0 328 14" fill="none" xmlns="http://www.w3.org/2000/svg">
<rect x="14.7688" width="14" height="14.7688" transform="rotate(90 14.7688 0)" fill="#98EC65" fill-opacity="0.12"/>
<rect x="49.5723" width="14" height="14.7688" transform="rotate(90 49.5723 0)" fill="#5F5F5F" fill-opacity="0.12"/>
<rect x="84.3757" width="14" height="14.7688" transform="rotate(90 84.3757 0)" fill="#5F5F5F" fill-opacity="0.12"/>
<rect x="119.179" width="14" height="14.7688" transform="rotate(90 119.179 0)" fill="#5F5F5F" fill-opacity="0.12"/>
<rect x="153.983" width="14" height="14.7688" transform="rotate(90 153.983 0)" fill="#5F5F5F" fill-opacity="0.12"/>
<rect x="188.786" width="14" height="14.7688" transform="rotate(90 188.786 0)" fill="#5F5F5F" fill-opacity="0.12"/>
<rect x="223.59" width="14" height="14.7688" transform="rotate(90 223.59 0)" fill="#5F5F5F" fill-opacity="0.12"/>
<rect x="258.393" width="14" height="14.7688" transform="rotate(90 258.393 0)" fill="#5F5F5F" fill-opacity="0.12"/>
<rect x="293.197" width="14" height="14.7688" transform="rotate(90 293.197 0)" fill="#5F5F5F" fill-opacity="0.12"/>
<rect x="328" width="14" height="14.7688" transform="rotate(90 328 0)" fill="#5F5F5F" fill-opacity="0.12"/>
</svg>
