<svg width="225" height="154" viewBox="0 0 225 154" fill="none" xmlns="http://www.w3.org/2000/svg">
<rect x="209.572" y="154" width="14" height="14.7688" transform="rotate(-90 209.572 154)" fill="#98EC65" fill-opacity="0.12"/>
<rect x="174.803" y="154" width="14" height="14.7688" transform="rotate(-90 174.803 154)" fill="#5F5F5F" fill-opacity="0.12"/>
<rect x="140.034" y="154" width="14" height="14.7688" transform="rotate(-90 140.034 154)" fill="#5F5F5F" fill-opacity="0.12"/>
<rect x="105.266" y="154" width="14" height="14.7688" transform="rotate(-90 105.266 154)" fill="#5F5F5F" fill-opacity="0.12"/>
<rect x="70.4971" y="154" width="14" height="14.7688" transform="rotate(-90 70.4971 154)" fill="#5F5F5F" fill-opacity="0.12"/>
<rect x="35.7283" y="154" width="14" height="14.7688" transform="rotate(-90 35.7283 154)" fill="#5F5F5F" fill-opacity="0.12"/>
<rect x="0.959473" y="154" width="14" height="14.7688" transform="rotate(-90 0.959473 154)" fill="#5F5F5F" fill-opacity="0.12"/>
<rect x="15.1475" y="15.7046" width="14" height="14.7688" transform="rotate(-180 15.1475 15.7046)" fill="#98EC65" fill-opacity="0.12"/>
<rect x="15.1475" y="50.4736" width="14" height="14.7688" transform="rotate(-180 15.1475 50.4736)" fill="#5F5F5F" fill-opacity="0.12"/>
<rect x="15.1475" y="85.2422" width="14" height="14.7688" transform="rotate(-180 15.1475 85.2422)" fill="#5F5F5F" fill-opacity="0.12"/>
<rect x="15.1475" y="120.011" width="14" height="14.7688" transform="rotate(-180 15.1475 120.011)" fill="#5F5F5F" fill-opacity="0.12"/>
</svg>
