<svg width="328" height="14" viewBox="0 0 328 14" fill="none" xmlns="http://www.w3.org/2000/svg">
<rect x="313.231" y="14" width="14" height="14.7688" transform="rotate(-90 313.231 14)" fill="#98EC65" fill-opacity="0.12"/>
<rect x="278.428" y="14" width="14" height="14.7688" transform="rotate(-90 278.428 14)" fill="#5F5F5F" fill-opacity="0.12"/>
<rect x="243.624" y="14" width="14" height="14.7688" transform="rotate(-90 243.624 14)" fill="#5F5F5F" fill-opacity="0.12"/>
<rect x="208.821" y="14" width="14" height="14.7688" transform="rotate(-90 208.821 14)" fill="#5F5F5F" fill-opacity="0.12"/>
<rect x="174.017" y="14" width="14" height="14.7688" transform="rotate(-90 174.017 14)" fill="#5F5F5F" fill-opacity="0.12"/>
<rect x="139.214" y="14" width="14" height="14.7688" transform="rotate(-90 139.214 14)" fill="#5F5F5F" fill-opacity="0.12"/>
<rect x="104.41" y="14" width="14" height="14.7688" transform="rotate(-90 104.41 14)" fill="#5F5F5F" fill-opacity="0.12"/>
<rect x="69.6069" y="14" width="14" height="14.7688" transform="rotate(-90 69.6069 14)" fill="#5F5F5F" fill-opacity="0.12"/>
<rect x="34.8035" y="14" width="14" height="14.7688" transform="rotate(-90 34.8035 14)" fill="#5F5F5F" fill-opacity="0.12"/>
<rect y="14" width="14" height="14.7688" transform="rotate(-90 0 14)" fill="#5F5F5F" fill-opacity="0.12"/>
</svg>
