<svg width="227" height="166" viewBox="0 0 227 166" fill="none" xmlns="http://www.w3.org/2000/svg">
<rect x="183" y="36" width="18" height="19" transform="rotate(-180 183 36)" fill="#5F5F5F" fill-opacity="0.12"/>
<rect x="165" y="166" width="19" height="18" transform="rotate(-90 165 166)" fill="#5F5F5F" fill-opacity="0.12"/>
<rect x="165" y="122" width="18" height="18" transform="rotate(-90 165 122)" fill="#5F5F5F" fill-opacity="0.12"/>
<rect x="209" y="166" width="18" height="18" transform="rotate(-90 209 166)" fill="#5F5F5F" fill-opacity="0.12"/>
<rect x="183" y="79" width="18" height="18" transform="rotate(-180 183 79)" fill="#5F5F5F" fill-opacity="0.12"/>
<rect x="138" y="36" width="19" height="18" transform="rotate(-180 138 36)" fill="#5F5F5F" fill-opacity="0.12"/>
<rect x="94" y="36" width="18" height="18" transform="rotate(-180 94 36)" fill="#5F5F5F" fill-opacity="0.12"/>
<g filter="url(#filter0_f_177_80)">
<rect x="0.5" y="0.5" width="47" height="44" transform="matrix(-4.37114e-08 1 1 4.37114e-08 4 4)" stroke="#98EC65"/>
</g>
<defs>
<filter id="filter0_f_177_80" x="0" y="0" width="53" height="56" filterUnits="userSpaceOnUse" color-interpolation-filters="sRGB">
<feFlood flood-opacity="0" result="BackgroundImageFix"/>
<feBlend mode="normal" in="SourceGraphic" in2="BackgroundImageFix" result="shape"/>
<feGaussianBlur stdDeviation="2" result="effect1_foregroundBlur_177_80"/>
</filter>
</defs>
</svg>
