<svg width="259" height="119" viewBox="0 0 259 119" fill="none" xmlns="http://www.w3.org/2000/svg">
<rect x="243.381" y="118.381" width="14" height="14.7688" transform="rotate(-90 243.381 118.381)" fill="#98EC65" fill-opacity="0.12"/>
<rect x="208.613" y="118.381" width="14" height="14.7688" transform="rotate(-90 208.613 118.381)" fill="#5F5F5F" fill-opacity="0.12"/>
<rect x="173.844" y="118.381" width="14" height="14.7688" transform="rotate(-90 173.844 118.381)" fill="#5F5F5F" fill-opacity="0.12"/>
<rect x="139.075" y="118.381" width="14" height="14.7688" transform="rotate(-90 139.075 118.381)" fill="#5F5F5F" fill-opacity="0.12"/>
<rect x="104.306" y="118.381" width="14" height="14.7688" transform="rotate(-90 104.306 118.381)" fill="#5F5F5F" fill-opacity="0.12"/>
<rect x="69.5376" y="118.381" width="14" height="14.7688" transform="rotate(-90 69.5376 118.381)" fill="#5F5F5F" fill-opacity="0.12"/>
<rect x="34.7688" y="118.381" width="14" height="14.7688" transform="rotate(-90 34.7688 118.381)" fill="#5F5F5F" fill-opacity="0.12"/>
<rect y="118.381" width="14" height="14.7688" transform="rotate(-90 0 118.381)" fill="#5F5F5F" fill-opacity="0.12"/>
<rect x="14.1502" y="14.8438" width="14" height="14.7688" transform="rotate(-180 14.1502 14.8438)" fill="#98EC65" fill-opacity="0.12"/>
<rect x="14.1502" y="49.6113" width="14" height="14.7688" transform="rotate(-180 14.1502 49.6113)" fill="#5F5F5F" fill-opacity="0.12"/>
<rect x="14.1502" y="84.3809" width="14" height="14.7688" transform="rotate(-180 14.1502 84.3809)" fill="#5F5F5F" fill-opacity="0.12"/>
</svg>
