<svg width="830" height="262" viewBox="0 0 830 262" fill="none" xmlns="http://www.w3.org/2000/svg">
<rect x="14" y="14" width="14" height="14" transform="rotate(-180 14 14)" fill="#5F5F5F" fill-opacity="0.12"/>
<rect x="45.3845" y="14" width="14" height="14" transform="rotate(-180 45.3845 14)" fill="#5F5F5F" fill-opacity="0.12"/>
<rect x="76.7693" y="14" width="14" height="14" transform="rotate(-180 76.7693 14)" fill="#5F5F5F" fill-opacity="0.12"/>
<rect x="108.154" y="14" width="14" height="14" transform="rotate(-180 108.154 14)" fill="#5F5F5F" fill-opacity="0.12"/>
<rect x="139.539" y="14" width="14" height="14" transform="rotate(-180 139.539 14)" fill="#5F5F5F" fill-opacity="0.12"/>
<rect x="170.923" y="14" width="14" height="14" transform="rotate(-180 170.923 14)" fill="#5F5F5F" fill-opacity="0.12"/>
<rect x="202.308" y="14" width="14" height="14" transform="rotate(-180 202.308 14)" fill="#5F5F5F" fill-opacity="0.12"/>
<rect x="233.692" y="14" width="14" height="14" transform="rotate(-180 233.692 14)" fill="#5F5F5F" fill-opacity="0.12"/>
<rect x="265.077" y="14" width="14" height="14" transform="rotate(-180 265.077 14)" fill="#5F5F5F" fill-opacity="0.12"/>
<rect x="296.461" y="14" width="14" height="14" transform="rotate(-180 296.461 14)" fill="#5F5F5F" fill-opacity="0.12"/>
<rect x="327.846" y="14" width="14" height="14" transform="rotate(-180 327.846 14)" fill="#5F5F5F" fill-opacity="0.12"/>
<rect x="359.231" y="14" width="14" height="14" transform="rotate(-180 359.231 14)" fill="#5F5F5F" fill-opacity="0.12"/>
<rect x="390.615" y="14" width="14" height="14" transform="rotate(-180 390.615 14)" fill="#5F5F5F" fill-opacity="0.12"/>
<rect x="422" y="14" width="14" height="14" transform="rotate(-180 422 14)" fill="#5F5F5F" fill-opacity="0.12"/>
<rect x="453.385" y="14" width="14" height="14" transform="rotate(-180 453.385 14)" fill="#5F5F5F" fill-opacity="0.12"/>
<rect x="484.769" y="14" width="14" height="14" transform="rotate(-180 484.769 14)" fill="#5F5F5F" fill-opacity="0.12"/>
<rect x="516.154" y="14" width="14" height="14" transform="rotate(-180 516.154 14)" fill="#5F5F5F" fill-opacity="0.12"/>
<rect x="547.538" y="14" width="14" height="14" transform="rotate(-180 547.538 14)" fill="#5F5F5F" fill-opacity="0.12"/>
<rect x="578.923" y="14" width="14" height="14" transform="rotate(-180 578.923 14)" fill="#5F5F5F" fill-opacity="0.12"/>
<rect x="610.308" y="14" width="14" height="14" transform="rotate(-180 610.308 14)" fill="#5F5F5F" fill-opacity="0.12"/>
<rect x="641.692" y="14" width="14" height="14" transform="rotate(-180 641.692 14)" fill="#5F5F5F" fill-opacity="0.12"/>
<rect x="673.077" y="14" width="14" height="14" transform="rotate(-180 673.077 14)" fill="#5F5F5F" fill-opacity="0.12"/>
<rect x="704.462" y="14" width="14" height="14" transform="rotate(-180 704.462 14)" fill="#5F5F5F" fill-opacity="0.12"/>
<rect x="735.846" y="14" width="14" height="14" transform="rotate(-180 735.846 14)" fill="#5F5F5F" fill-opacity="0.12"/>
<rect x="767.231" y="14" width="14" height="14" transform="rotate(-180 767.231 14)" fill="#5F5F5F" fill-opacity="0.12"/>
<rect x="798.616" y="14" width="14" height="14" transform="rotate(-180 798.616 14)" fill="#5F5F5F" fill-opacity="0.12"/>
<rect x="830" y="14" width="14" height="14" transform="rotate(-180 830 14)" fill="#5F5F5F" fill-opacity="0.12"/>
<rect x="14" y="45" width="14" height="14" transform="rotate(-180 14 45)" fill="#5F5F5F" fill-opacity="0.12"/>
<rect x="45.3845" y="45" width="14" height="14" transform="rotate(-180 45.3845 45)" fill="#5F5F5F" fill-opacity="0.12"/>
<rect x="76.7693" y="45" width="14" height="14" transform="rotate(-180 76.7693 45)" fill="#5F5F5F" fill-opacity="0.12"/>
<rect x="108.154" y="45" width="14" height="14" transform="rotate(-180 108.154 45)" fill="#5F5F5F" fill-opacity="0.12"/>
<rect x="139.539" y="45" width="14" height="14" transform="rotate(-180 139.539 45)" fill="#5F5F5F" fill-opacity="0.12"/>
<rect x="170.923" y="45" width="14" height="14" transform="rotate(-180 170.923 45)" fill="#5F5F5F" fill-opacity="0.12"/>
<rect x="202.308" y="45" width="14" height="14" transform="rotate(-180 202.308 45)" fill="#5F5F5F" fill-opacity="0.12"/>
<rect x="233.692" y="45" width="14" height="14" transform="rotate(-180 233.692 45)" fill="#5F5F5F" fill-opacity="0.12"/>
<rect x="265.077" y="45" width="14" height="14" transform="rotate(-180 265.077 45)" fill="#5F5F5F" fill-opacity="0.12"/>
<rect x="296.461" y="45" width="14" height="14" transform="rotate(-180 296.461 45)" fill="#5F5F5F" fill-opacity="0.12"/>
<rect x="327.846" y="45" width="14" height="14" transform="rotate(-180 327.846 45)" fill="#5F5F5F" fill-opacity="0.12"/>
<rect x="359.231" y="45" width="14" height="14" transform="rotate(-180 359.231 45)" fill="#5F5F5F" fill-opacity="0.12"/>
<rect x="390.615" y="45" width="14" height="14" transform="rotate(-180 390.615 45)" fill="#5F5F5F" fill-opacity="0.12"/>
<rect x="422" y="45" width="14" height="14" transform="rotate(-180 422 45)" fill="#5F5F5F" fill-opacity="0.12"/>
<rect x="453.385" y="45" width="14" height="14" transform="rotate(-180 453.385 45)" fill="#5F5F5F" fill-opacity="0.12"/>
<rect x="484.769" y="45" width="14" height="14" transform="rotate(-180 484.769 45)" fill="#5F5F5F" fill-opacity="0.12"/>
<rect x="516.154" y="45" width="14" height="14" transform="rotate(-180 516.154 45)" fill="#5F5F5F" fill-opacity="0.12"/>
<rect x="547.538" y="45" width="14" height="14" transform="rotate(-180 547.538 45)" fill="#5F5F5F" fill-opacity="0.12"/>
<rect x="578.923" y="45" width="14" height="14" transform="rotate(-180 578.923 45)" fill="#5F5F5F" fill-opacity="0.12"/>
<rect x="610.308" y="45" width="14" height="14" transform="rotate(-180 610.308 45)" fill="#5F5F5F" fill-opacity="0.12"/>
<rect x="641.692" y="45" width="14" height="14" transform="rotate(-180 641.692 45)" fill="#5F5F5F" fill-opacity="0.12"/>
<rect x="673.077" y="45" width="14" height="14" transform="rotate(-180 673.077 45)" fill="#5F5F5F" fill-opacity="0.12"/>
<rect x="704.462" y="45" width="14" height="14" transform="rotate(-180 704.462 45)" fill="#5F5F5F" fill-opacity="0.12"/>
<rect x="735.846" y="45" width="14" height="14" transform="rotate(-180 735.846 45)" fill="#5F5F5F" fill-opacity="0.12"/>
<rect x="767.231" y="45" width="14" height="14" transform="rotate(-180 767.231 45)" fill="#5F5F5F" fill-opacity="0.12"/>
<rect x="798.616" y="45" width="14" height="14" transform="rotate(-180 798.616 45)" fill="#5F5F5F" fill-opacity="0.12"/>
<rect x="830" y="45" width="14" height="14" transform="rotate(-180 830 45)" fill="#5F5F5F" fill-opacity="0.12"/>
<rect x="14" y="76" width="14" height="14" transform="rotate(-180 14 76)" fill="#5F5F5F" fill-opacity="0.12"/>
<rect x="45.3845" y="76" width="14" height="14" transform="rotate(-180 45.3845 76)" fill="#5F5F5F" fill-opacity="0.12"/>
<rect x="76.7693" y="76" width="14" height="14" transform="rotate(-180 76.7693 76)" fill="#5F5F5F" fill-opacity="0.12"/>
<rect x="108.154" y="76" width="14" height="14" transform="rotate(-180 108.154 76)" fill="#5F5F5F" fill-opacity="0.12"/>
<rect x="139.539" y="76" width="14" height="14" transform="rotate(-180 139.539 76)" fill="#5F5F5F" fill-opacity="0.12"/>
<rect x="170.923" y="76" width="14" height="14" transform="rotate(-180 170.923 76)" fill="#5F5F5F" fill-opacity="0.12"/>
<rect x="202.308" y="76" width="14" height="14" transform="rotate(-180 202.308 76)" fill="#5F5F5F" fill-opacity="0.12"/>
<rect x="233.692" y="76" width="14" height="14" transform="rotate(-180 233.692 76)" fill="#5F5F5F" fill-opacity="0.12"/>
<rect x="265.077" y="76" width="14" height="14" transform="rotate(-180 265.077 76)" fill="#5F5F5F" fill-opacity="0.12"/>
<rect x="296.461" y="76" width="14" height="14" transform="rotate(-180 296.461 76)" fill="#5F5F5F" fill-opacity="0.12"/>
<rect x="327.846" y="76" width="14" height="14" transform="rotate(-180 327.846 76)" fill="#5F5F5F" fill-opacity="0.12"/>
<rect x="359.231" y="76" width="14" height="14" transform="rotate(-180 359.231 76)" fill="#5F5F5F" fill-opacity="0.12"/>
<rect x="390.615" y="76" width="14" height="14" transform="rotate(-180 390.615 76)" fill="#5F5F5F" fill-opacity="0.12"/>
<rect x="422" y="76" width="14" height="14" transform="rotate(-180 422 76)" fill="#5F5F5F" fill-opacity="0.12"/>
<rect x="453.385" y="76" width="14" height="14" transform="rotate(-180 453.385 76)" fill="#5F5F5F" fill-opacity="0.12"/>
<rect x="484.769" y="76" width="14" height="14" transform="rotate(-180 484.769 76)" fill="#5F5F5F" fill-opacity="0.12"/>
<rect x="516.154" y="76" width="14" height="14" transform="rotate(-180 516.154 76)" fill="#5F5F5F" fill-opacity="0.12"/>
<rect x="547.538" y="76" width="14" height="14" transform="rotate(-180 547.538 76)" fill="#5F5F5F" fill-opacity="0.12"/>
<rect x="578.923" y="76" width="14" height="14" transform="rotate(-180 578.923 76)" fill="#5F5F5F" fill-opacity="0.12"/>
<rect x="610.308" y="76" width="14" height="14" transform="rotate(-180 610.308 76)" fill="#5F5F5F" fill-opacity="0.12"/>
<rect x="641.692" y="76" width="14" height="14" transform="rotate(-180 641.692 76)" fill="#5F5F5F" fill-opacity="0.12"/>
<rect x="673.077" y="76" width="14" height="14" transform="rotate(-180 673.077 76)" fill="#5F5F5F" fill-opacity="0.12"/>
<rect x="704.462" y="76" width="14" height="14" transform="rotate(-180 704.462 76)" fill="#5F5F5F" fill-opacity="0.12"/>
<rect x="735.846" y="76" width="14" height="14" transform="rotate(-180 735.846 76)" fill="#5F5F5F" fill-opacity="0.12"/>
<rect x="767.231" y="76" width="14" height="14" transform="rotate(-180 767.231 76)" fill="#5F5F5F" fill-opacity="0.12"/>
<rect x="798.616" y="76" width="14" height="14" transform="rotate(-180 798.616 76)" fill="#5F5F5F" fill-opacity="0.12"/>
<rect x="830" y="76" width="14" height="14" transform="rotate(-180 830 76)" fill="#5F5F5F" fill-opacity="0.12"/>
<rect x="14" y="107" width="14" height="14" transform="rotate(-180 14 107)" fill="#5F5F5F" fill-opacity="0.12"/>
<rect x="45.3845" y="107" width="14" height="14" transform="rotate(-180 45.3845 107)" fill="#5F5F5F" fill-opacity="0.12"/>
<rect x="76.7693" y="107" width="14" height="14" transform="rotate(-180 76.7693 107)" fill="#5F5F5F" fill-opacity="0.12"/>
<rect x="108.154" y="107" width="14" height="14" transform="rotate(-180 108.154 107)" fill="#5F5F5F" fill-opacity="0.12"/>
<rect x="139.539" y="107" width="14" height="14" transform="rotate(-180 139.539 107)" fill="#5F5F5F" fill-opacity="0.12"/>
<rect x="170.923" y="107" width="14" height="14" transform="rotate(-180 170.923 107)" fill="#5F5F5F" fill-opacity="0.12"/>
<rect x="202.308" y="107" width="14" height="14" transform="rotate(-180 202.308 107)" fill="#5F5F5F" fill-opacity="0.12"/>
<rect x="233.692" y="107" width="14" height="14" transform="rotate(-180 233.692 107)" fill="#5F5F5F" fill-opacity="0.12"/>
<rect x="265.077" y="107" width="14" height="14" transform="rotate(-180 265.077 107)" fill="#5F5F5F" fill-opacity="0.12"/>
<rect x="296.461" y="107" width="14" height="14" transform="rotate(-180 296.461 107)" fill="#5F5F5F" fill-opacity="0.12"/>
<rect x="327.846" y="107" width="14" height="14" transform="rotate(-180 327.846 107)" fill="#5F5F5F" fill-opacity="0.12"/>
<rect x="359.231" y="107" width="14" height="14" transform="rotate(-180 359.231 107)" fill="#5F5F5F" fill-opacity="0.12"/>
<rect x="390.615" y="107" width="14" height="14" transform="rotate(-180 390.615 107)" fill="#5F5F5F" fill-opacity="0.12"/>
<rect x="422" y="107" width="14" height="14" transform="rotate(-180 422 107)" fill="#5F5F5F" fill-opacity="0.12"/>
<rect x="453.385" y="107" width="14" height="14" transform="rotate(-180 453.385 107)" fill="#5F5F5F" fill-opacity="0.12"/>
<rect x="484.769" y="107" width="14" height="14" transform="rotate(-180 484.769 107)" fill="#5F5F5F" fill-opacity="0.12"/>
<rect x="516.154" y="107" width="14" height="14" transform="rotate(-180 516.154 107)" fill="#5F5F5F" fill-opacity="0.12"/>
<rect x="547.538" y="107" width="14" height="14" transform="rotate(-180 547.538 107)" fill="#5F5F5F" fill-opacity="0.12"/>
<rect x="578.923" y="107" width="14" height="14" transform="rotate(-180 578.923 107)" fill="#5F5F5F" fill-opacity="0.12"/>
<rect x="610.308" y="107" width="14" height="14" transform="rotate(-180 610.308 107)" fill="#5F5F5F" fill-opacity="0.12"/>
<rect x="641.692" y="107" width="14" height="14" transform="rotate(-180 641.692 107)" fill="#5F5F5F" fill-opacity="0.12"/>
<rect x="673.077" y="107" width="14" height="14" transform="rotate(-180 673.077 107)" fill="#5F5F5F" fill-opacity="0.12"/>
<rect x="704.462" y="107" width="14" height="14" transform="rotate(-180 704.462 107)" fill="#5F5F5F" fill-opacity="0.12"/>
<rect x="735.846" y="107" width="14" height="14" transform="rotate(-180 735.846 107)" fill="#5F5F5F" fill-opacity="0.12"/>
<rect x="767.231" y="107" width="14" height="14" transform="rotate(-180 767.231 107)" fill="#5F5F5F" fill-opacity="0.12"/>
<rect x="798.616" y="107" width="14" height="14" transform="rotate(-180 798.616 107)" fill="#5F5F5F" fill-opacity="0.12"/>
<rect x="830" y="107" width="14" height="14" transform="rotate(-180 830 107)" fill="#5F5F5F" fill-opacity="0.12"/>
<rect x="14" y="138" width="14" height="14" transform="rotate(-180 14 138)" fill="#5F5F5F" fill-opacity="0.12"/>
<rect x="45.3845" y="138" width="14" height="14" transform="rotate(-180 45.3845 138)" fill="#5F5F5F" fill-opacity="0.12"/>
<rect x="76.7693" y="138" width="14" height="14" transform="rotate(-180 76.7693 138)" fill="#5F5F5F" fill-opacity="0.12"/>
<rect x="108.154" y="138" width="14" height="14" transform="rotate(-180 108.154 138)" fill="#5F5F5F" fill-opacity="0.12"/>
<rect x="139.539" y="138" width="14" height="14" transform="rotate(-180 139.539 138)" fill="#5F5F5F" fill-opacity="0.12"/>
<rect x="170.923" y="138" width="14" height="14" transform="rotate(-180 170.923 138)" fill="#5F5F5F" fill-opacity="0.12"/>
<rect x="202.308" y="138" width="14" height="14" transform="rotate(-180 202.308 138)" fill="#5F5F5F" fill-opacity="0.12"/>
<rect x="233.692" y="138" width="14" height="14" transform="rotate(-180 233.692 138)" fill="#5F5F5F" fill-opacity="0.12"/>
<rect x="265.077" y="138" width="14" height="14" transform="rotate(-180 265.077 138)" fill="#5F5F5F" fill-opacity="0.12"/>
<rect x="296.461" y="138" width="14" height="14" transform="rotate(-180 296.461 138)" fill="#5F5F5F" fill-opacity="0.12"/>
<rect x="327.846" y="138" width="14" height="14" transform="rotate(-180 327.846 138)" fill="#5F5F5F" fill-opacity="0.12"/>
<rect x="359.231" y="138" width="14" height="14" transform="rotate(-180 359.231 138)" fill="#5F5F5F" fill-opacity="0.12"/>
<rect x="390.615" y="138" width="14" height="14" transform="rotate(-180 390.615 138)" fill="#5F5F5F" fill-opacity="0.12"/>
<rect x="422" y="138" width="14" height="14" transform="rotate(-180 422 138)" fill="#5F5F5F" fill-opacity="0.12"/>
<rect x="453.385" y="138" width="14" height="14" transform="rotate(-180 453.385 138)" fill="#5F5F5F" fill-opacity="0.12"/>
<rect x="484.769" y="138" width="14" height="14" transform="rotate(-180 484.769 138)" fill="#5F5F5F" fill-opacity="0.12"/>
<rect x="516.154" y="138" width="14" height="14" transform="rotate(-180 516.154 138)" fill="#5F5F5F" fill-opacity="0.12"/>
<rect x="547.538" y="138" width="14" height="14" transform="rotate(-180 547.538 138)" fill="#5F5F5F" fill-opacity="0.12"/>
<rect x="578.923" y="138" width="14" height="14" transform="rotate(-180 578.923 138)" fill="#5F5F5F" fill-opacity="0.12"/>
<rect x="610.308" y="138" width="14" height="14" transform="rotate(-180 610.308 138)" fill="#5F5F5F" fill-opacity="0.12"/>
<rect x="641.692" y="138" width="14" height="14" transform="rotate(-180 641.692 138)" fill="#5F5F5F" fill-opacity="0.12"/>
<rect x="673.077" y="138" width="14" height="14" transform="rotate(-180 673.077 138)" fill="#5F5F5F" fill-opacity="0.12"/>
<rect x="704.462" y="138" width="14" height="14" transform="rotate(-180 704.462 138)" fill="#5F5F5F" fill-opacity="0.12"/>
<rect x="735.846" y="138" width="14" height="14" transform="rotate(-180 735.846 138)" fill="#5F5F5F" fill-opacity="0.12"/>
<rect x="767.231" y="138" width="14" height="14" transform="rotate(-180 767.231 138)" fill="#5F5F5F" fill-opacity="0.12"/>
<rect x="798.616" y="138" width="14" height="14" transform="rotate(-180 798.616 138)" fill="#5F5F5F" fill-opacity="0.12"/>
<rect x="830" y="138" width="14" height="14" transform="rotate(-180 830 138)" fill="#5F5F5F" fill-opacity="0.12"/>
<rect x="14" y="169" width="14" height="14" transform="rotate(-180 14 169)" fill="#5F5F5F" fill-opacity="0.12"/>
<rect x="45.3845" y="169" width="14" height="14" transform="rotate(-180 45.3845 169)" fill="#5F5F5F" fill-opacity="0.12"/>
<rect x="76.7693" y="169" width="14" height="14" transform="rotate(-180 76.7693 169)" fill="#5F5F5F" fill-opacity="0.12"/>
<rect x="108.154" y="169" width="14" height="14" transform="rotate(-180 108.154 169)" fill="#5F5F5F" fill-opacity="0.12"/>
<rect x="139.539" y="169" width="14" height="14" transform="rotate(-180 139.539 169)" fill="#5F5F5F" fill-opacity="0.12"/>
<rect x="170.923" y="169" width="14" height="14" transform="rotate(-180 170.923 169)" fill="#5F5F5F" fill-opacity="0.12"/>
<rect x="202.308" y="169" width="14" height="14" transform="rotate(-180 202.308 169)" fill="#5F5F5F" fill-opacity="0.12"/>
<rect x="233.692" y="169" width="14" height="14" transform="rotate(-180 233.692 169)" fill="#5F5F5F" fill-opacity="0.12"/>
<rect x="265.077" y="169" width="14" height="14" transform="rotate(-180 265.077 169)" fill="#5F5F5F" fill-opacity="0.12"/>
<rect x="296.461" y="169" width="14" height="14" transform="rotate(-180 296.461 169)" fill="#5F5F5F" fill-opacity="0.12"/>
<rect x="327.846" y="169" width="14" height="14" transform="rotate(-180 327.846 169)" fill="#5F5F5F" fill-opacity="0.12"/>
<rect x="359.231" y="169" width="14" height="14" transform="rotate(-180 359.231 169)" fill="#5F5F5F" fill-opacity="0.12"/>
<rect x="390.615" y="169" width="14" height="14" transform="rotate(-180 390.615 169)" fill="#5F5F5F" fill-opacity="0.12"/>
<rect x="422" y="169" width="14" height="14" transform="rotate(-180 422 169)" fill="#5F5F5F" fill-opacity="0.12"/>
<rect x="453.385" y="169" width="14" height="14" transform="rotate(-180 453.385 169)" fill="#5F5F5F" fill-opacity="0.12"/>
<rect x="484.769" y="169" width="14" height="14" transform="rotate(-180 484.769 169)" fill="#5F5F5F" fill-opacity="0.12"/>
<rect x="516.154" y="169" width="14" height="14" transform="rotate(-180 516.154 169)" fill="#5F5F5F" fill-opacity="0.12"/>
<rect x="547.538" y="169" width="14" height="14" transform="rotate(-180 547.538 169)" fill="#5F5F5F" fill-opacity="0.12"/>
<rect x="578.923" y="169" width="14" height="14" transform="rotate(-180 578.923 169)" fill="#5F5F5F" fill-opacity="0.12"/>
<rect x="610.308" y="169" width="14" height="14" transform="rotate(-180 610.308 169)" fill="#5F5F5F" fill-opacity="0.12"/>
<rect x="641.692" y="169" width="14" height="14" transform="rotate(-180 641.692 169)" fill="#5F5F5F" fill-opacity="0.12"/>
<rect x="673.077" y="169" width="14" height="14" transform="rotate(-180 673.077 169)" fill="#5F5F5F" fill-opacity="0.12"/>
<rect x="704.462" y="169" width="14" height="14" transform="rotate(-180 704.462 169)" fill="#5F5F5F" fill-opacity="0.12"/>
<rect x="735.846" y="169" width="14" height="14" transform="rotate(-180 735.846 169)" fill="#5F5F5F" fill-opacity="0.12"/>
<rect x="767.231" y="169" width="14" height="14" transform="rotate(-180 767.231 169)" fill="#5F5F5F" fill-opacity="0.12"/>
<rect x="798.616" y="169" width="14" height="14" transform="rotate(-180 798.616 169)" fill="#5F5F5F" fill-opacity="0.12"/>
<rect x="830" y="169" width="14" height="14" transform="rotate(-180 830 169)" fill="#5F5F5F" fill-opacity="0.12"/>
<rect x="14" y="200" width="14" height="14" transform="rotate(-180 14 200)" fill="#5F5F5F" fill-opacity="0.12"/>
<rect x="45.3845" y="200" width="14" height="14" transform="rotate(-180 45.3845 200)" fill="#5F5F5F" fill-opacity="0.12"/>
<rect x="76.7693" y="200" width="14" height="14" transform="rotate(-180 76.7693 200)" fill="#5F5F5F" fill-opacity="0.12"/>
<rect x="108.154" y="200" width="14" height="14" transform="rotate(-180 108.154 200)" fill="#5F5F5F" fill-opacity="0.12"/>
<rect x="139.539" y="200" width="14" height="14" transform="rotate(-180 139.539 200)" fill="#5F5F5F" fill-opacity="0.12"/>
<rect x="170.923" y="200" width="14" height="14" transform="rotate(-180 170.923 200)" fill="#5F5F5F" fill-opacity="0.12"/>
<rect x="202.308" y="200" width="14" height="14" transform="rotate(-180 202.308 200)" fill="#5F5F5F" fill-opacity="0.12"/>
<rect x="233.692" y="200" width="14" height="14" transform="rotate(-180 233.692 200)" fill="#5F5F5F" fill-opacity="0.12"/>
<rect x="265.077" y="200" width="14" height="14" transform="rotate(-180 265.077 200)" fill="#5F5F5F" fill-opacity="0.12"/>
<rect x="296.461" y="200" width="14" height="14" transform="rotate(-180 296.461 200)" fill="#5F5F5F" fill-opacity="0.12"/>
<rect x="327.846" y="200" width="14" height="14" transform="rotate(-180 327.846 200)" fill="#5F5F5F" fill-opacity="0.12"/>
<rect x="359.231" y="200" width="14" height="14" transform="rotate(-180 359.231 200)" fill="#5F5F5F" fill-opacity="0.12"/>
<rect x="390.615" y="200" width="14" height="14" transform="rotate(-180 390.615 200)" fill="#5F5F5F" fill-opacity="0.12"/>
<rect x="422" y="200" width="14" height="14" transform="rotate(-180 422 200)" fill="#5F5F5F" fill-opacity="0.12"/>
<rect x="453.385" y="200" width="14" height="14" transform="rotate(-180 453.385 200)" fill="#5F5F5F" fill-opacity="0.12"/>
<rect x="484.769" y="200" width="14" height="14" transform="rotate(-180 484.769 200)" fill="#5F5F5F" fill-opacity="0.12"/>
<rect x="516.154" y="200" width="14" height="14" transform="rotate(-180 516.154 200)" fill="#5F5F5F" fill-opacity="0.12"/>
<rect x="547.538" y="200" width="14" height="14" transform="rotate(-180 547.538 200)" fill="#5F5F5F" fill-opacity="0.12"/>
<rect x="578.923" y="200" width="14" height="14" transform="rotate(-180 578.923 200)" fill="#5F5F5F" fill-opacity="0.12"/>
<rect x="610.308" y="200" width="14" height="14" transform="rotate(-180 610.308 200)" fill="#5F5F5F" fill-opacity="0.12"/>
<rect x="641.692" y="200" width="14" height="14" transform="rotate(-180 641.692 200)" fill="#5F5F5F" fill-opacity="0.12"/>
<rect x="673.077" y="200" width="14" height="14" transform="rotate(-180 673.077 200)" fill="#5F5F5F" fill-opacity="0.12"/>
<rect x="704.462" y="200" width="14" height="14" transform="rotate(-180 704.462 200)" fill="#5F5F5F" fill-opacity="0.12"/>
<rect x="735.846" y="200" width="14" height="14" transform="rotate(-180 735.846 200)" fill="#5F5F5F" fill-opacity="0.12"/>
<rect x="767.231" y="200" width="14" height="14" transform="rotate(-180 767.231 200)" fill="#5F5F5F" fill-opacity="0.12"/>
<rect x="798.616" y="200" width="14" height="14" transform="rotate(-180 798.616 200)" fill="#5F5F5F" fill-opacity="0.12"/>
<rect x="830" y="200" width="14" height="14" transform="rotate(-180 830 200)" fill="#5F5F5F" fill-opacity="0.12"/>
<rect x="14" y="231" width="14" height="14" transform="rotate(-180 14 231)" fill="#5F5F5F" fill-opacity="0.12"/>
<rect x="45.3845" y="231" width="14" height="14" transform="rotate(-180 45.3845 231)" fill="#5F5F5F" fill-opacity="0.12"/>
<rect x="76.7693" y="231" width="14" height="14" transform="rotate(-180 76.7693 231)" fill="#5F5F5F" fill-opacity="0.12"/>
<rect x="108.154" y="231" width="14" height="14" transform="rotate(-180 108.154 231)" fill="#5F5F5F" fill-opacity="0.12"/>
<rect x="139.539" y="231" width="14" height="14" transform="rotate(-180 139.539 231)" fill="#5F5F5F" fill-opacity="0.12"/>
<rect x="170.923" y="231" width="14" height="14" transform="rotate(-180 170.923 231)" fill="#5F5F5F" fill-opacity="0.12"/>
<rect x="202.308" y="231" width="14" height="14" transform="rotate(-180 202.308 231)" fill="#5F5F5F" fill-opacity="0.12"/>
<rect x="233.692" y="231" width="14" height="14" transform="rotate(-180 233.692 231)" fill="#5F5F5F" fill-opacity="0.12"/>
<rect x="265.077" y="231" width="14" height="14" transform="rotate(-180 265.077 231)" fill="#5F5F5F" fill-opacity="0.12"/>
<rect x="296.461" y="231" width="14" height="14" transform="rotate(-180 296.461 231)" fill="#5F5F5F" fill-opacity="0.12"/>
<rect x="327.846" y="231" width="14" height="14" transform="rotate(-180 327.846 231)" fill="#5F5F5F" fill-opacity="0.12"/>
<rect x="359.231" y="231" width="14" height="14" transform="rotate(-180 359.231 231)" fill="#5F5F5F" fill-opacity="0.12"/>
<rect x="390.615" y="231" width="14" height="14" transform="rotate(-180 390.615 231)" fill="#5F5F5F" fill-opacity="0.12"/>
<rect x="422" y="231" width="14" height="14" transform="rotate(-180 422 231)" fill="#5F5F5F" fill-opacity="0.12"/>
<rect x="453.385" y="231" width="14" height="14" transform="rotate(-180 453.385 231)" fill="#5F5F5F" fill-opacity="0.12"/>
<rect x="484.769" y="231" width="14" height="14" transform="rotate(-180 484.769 231)" fill="#5F5F5F" fill-opacity="0.12"/>
<rect x="516.154" y="231" width="14" height="14" transform="rotate(-180 516.154 231)" fill="#5F5F5F" fill-opacity="0.12"/>
<rect x="547.538" y="231" width="14" height="14" transform="rotate(-180 547.538 231)" fill="#5F5F5F" fill-opacity="0.12"/>
<rect x="578.923" y="231" width="14" height="14" transform="rotate(-180 578.923 231)" fill="#5F5F5F" fill-opacity="0.12"/>
<rect x="610.308" y="231" width="14" height="14" transform="rotate(-180 610.308 231)" fill="#5F5F5F" fill-opacity="0.12"/>
<rect x="641.692" y="231" width="14" height="14" transform="rotate(-180 641.692 231)" fill="#5F5F5F" fill-opacity="0.12"/>
<rect x="673.077" y="231" width="14" height="14" transform="rotate(-180 673.077 231)" fill="#5F5F5F" fill-opacity="0.12"/>
<rect x="704.462" y="231" width="14" height="14" transform="rotate(-180 704.462 231)" fill="#5F5F5F" fill-opacity="0.12"/>
<rect x="735.846" y="231" width="14" height="14" transform="rotate(-180 735.846 231)" fill="#5F5F5F" fill-opacity="0.12"/>
<rect x="767.231" y="231" width="14" height="14" transform="rotate(-180 767.231 231)" fill="#5F5F5F" fill-opacity="0.12"/>
<rect x="798.616" y="231" width="14" height="14" transform="rotate(-180 798.616 231)" fill="#5F5F5F" fill-opacity="0.12"/>
<rect x="830" y="231" width="14" height="14" transform="rotate(-180 830 231)" fill="#5F5F5F" fill-opacity="0.12"/>
<rect x="14" y="262" width="14" height="14" transform="rotate(-180 14 262)" fill="#5F5F5F" fill-opacity="0.12"/>
<rect x="45.3845" y="262" width="14" height="14" transform="rotate(-180 45.3845 262)" fill="#5F5F5F" fill-opacity="0.12"/>
<rect x="76.7693" y="262" width="14" height="14" transform="rotate(-180 76.7693 262)" fill="#5F5F5F" fill-opacity="0.12"/>
<rect x="108.154" y="262" width="14" height="14" transform="rotate(-180 108.154 262)" fill="#5F5F5F" fill-opacity="0.12"/>
<rect x="139.539" y="262" width="14" height="14" transform="rotate(-180 139.539 262)" fill="#5F5F5F" fill-opacity="0.12"/>
<rect x="170.923" y="262" width="14" height="14" transform="rotate(-180 170.923 262)" fill="#5F5F5F" fill-opacity="0.12"/>
<rect x="202.308" y="262" width="14" height="14" transform="rotate(-180 202.308 262)" fill="#5F5F5F" fill-opacity="0.12"/>
<rect x="233.692" y="262" width="14" height="14" transform="rotate(-180 233.692 262)" fill="#5F5F5F" fill-opacity="0.12"/>
<rect x="265.077" y="262" width="14" height="14" transform="rotate(-180 265.077 262)" fill="#5F5F5F" fill-opacity="0.12"/>
<rect x="296.461" y="262" width="14" height="14" transform="rotate(-180 296.461 262)" fill="#5F5F5F" fill-opacity="0.12"/>
<rect x="327.846" y="262" width="14" height="14" transform="rotate(-180 327.846 262)" fill="#5F5F5F" fill-opacity="0.12"/>
<rect x="359.231" y="262" width="14" height="14" transform="rotate(-180 359.231 262)" fill="#5F5F5F" fill-opacity="0.12"/>
<rect x="390.615" y="262" width="14" height="14" transform="rotate(-180 390.615 262)" fill="#5F5F5F" fill-opacity="0.12"/>
<rect x="422" y="262" width="14" height="14" transform="rotate(-180 422 262)" fill="#5F5F5F" fill-opacity="0.12"/>
<rect x="453.385" y="262" width="14" height="14" transform="rotate(-180 453.385 262)" fill="#5F5F5F" fill-opacity="0.12"/>
<rect x="484.769" y="262" width="14" height="14" transform="rotate(-180 484.769 262)" fill="#5F5F5F" fill-opacity="0.12"/>
<rect x="516.154" y="262" width="14" height="14" transform="rotate(-180 516.154 262)" fill="#5F5F5F" fill-opacity="0.12"/>
<rect x="547.538" y="262" width="14" height="14" transform="rotate(-180 547.538 262)" fill="#5F5F5F" fill-opacity="0.12"/>
<rect x="578.923" y="262" width="14" height="14" transform="rotate(-180 578.923 262)" fill="#5F5F5F" fill-opacity="0.12"/>
<rect x="610.308" y="262" width="14" height="14" transform="rotate(-180 610.308 262)" fill="#5F5F5F" fill-opacity="0.12"/>
<rect x="641.692" y="262" width="14" height="14" transform="rotate(-180 641.692 262)" fill="#5F5F5F" fill-opacity="0.12"/>
<rect x="673.077" y="262" width="14" height="14" transform="rotate(-180 673.077 262)" fill="#5F5F5F" fill-opacity="0.12"/>
<rect x="704.462" y="262" width="14" height="14" transform="rotate(-180 704.462 262)" fill="#5F5F5F" fill-opacity="0.12"/>
<rect x="735.846" y="262" width="14" height="14" transform="rotate(-180 735.846 262)" fill="#5F5F5F" fill-opacity="0.12"/>
<rect x="767.231" y="262" width="14" height="14" transform="rotate(-180 767.231 262)" fill="#5F5F5F" fill-opacity="0.12"/>
<rect x="798.616" y="262" width="14" height="14" transform="rotate(-180 798.616 262)" fill="#5F5F5F" fill-opacity="0.12"/>
<rect x="830" y="262" width="14" height="14" transform="rotate(-180 830 262)" fill="#5F5F5F" fill-opacity="0.12"/>
</svg>
