<svg width="792" height="264" viewBox="0 0 792 264" fill="none" xmlns="http://www.w3.org/2000/svg">
<rect x="18" width="18" height="18" transform="rotate(90 18 0)" fill="#5F5F5F" fill-opacity="0.12"/>
<rect x="61" width="18" height="18" transform="rotate(90 61 0)" fill="#5F5F5F" fill-opacity="0.12"/>
<rect x="104" width="18" height="18" transform="rotate(90 104 0)" fill="#5F5F5F" fill-opacity="0.12"/>
<rect x="147" width="18" height="18" transform="rotate(90 147 0)" fill="#5F5F5F" fill-opacity="0.12"/>
<rect x="190" width="18" height="18" transform="rotate(90 190 0)" fill="#5F5F5F" fill-opacity="0.12"/>
<rect x="233" width="18" height="18" transform="rotate(90 233 0)" fill="#5F5F5F" fill-opacity="0.12"/>
<rect x="276" width="18" height="18" transform="rotate(90 276 0)" fill="#5F5F5F" fill-opacity="0.12"/>
<rect x="319" width="18" height="18" transform="rotate(90 319 0)" fill="#5F5F5F" fill-opacity="0.12"/>
<rect x="362" width="18" height="18" transform="rotate(90 362 0)" fill="#5F5F5F" fill-opacity="0.12"/>
<rect x="405" width="17.063" height="18" transform="rotate(90 405 0)" fill="#5F5F5F" fill-opacity="0.12"/>
<rect x="448" width="17.063" height="18" transform="rotate(90 448 0)" fill="#5F5F5F" fill-opacity="0.12"/>
<rect x="491" width="18" height="18" transform="rotate(90 491 0)" fill="#5F5F5F" fill-opacity="0.12"/>
<rect x="534" width="18" height="18" transform="rotate(90 534 0)" fill="#5F5F5F" fill-opacity="0.12"/>
<rect x="577" width="18" height="18" transform="rotate(90 577 0)" fill="#5F5F5F" fill-opacity="0.12"/>
<rect x="620" width="18" height="18" transform="rotate(90 620 0)" fill="#5F5F5F" fill-opacity="0.12"/>
<rect x="663" width="18" height="18" transform="rotate(90 663 0)" fill="#5F5F5F" fill-opacity="0.12"/>
<rect x="706" width="18" height="18" transform="rotate(90 706 0)" fill="#5F5F5F" fill-opacity="0.12"/>
<rect x="749" width="18" height="18" transform="rotate(90 749 0)" fill="#5F5F5F" fill-opacity="0.12"/>
<rect x="792" width="18" height="18" transform="rotate(90 792 0)" fill="#5F5F5F" fill-opacity="0.12"/>
<rect x="18" y="41" width="18" height="18" transform="rotate(90 18 41)" fill="#5F5F5F" fill-opacity="0.12"/>
<rect x="61" y="41" width="18" height="18" transform="rotate(90 61 41)" fill="#5F5F5F" fill-opacity="0.12"/>
<rect x="104" y="41" width="18" height="18" transform="rotate(90 104 41)" fill="#5F5F5F" fill-opacity="0.12"/>
<rect x="147" y="41" width="18" height="18" transform="rotate(90 147 41)" fill="#5F5F5F" fill-opacity="0.12"/>
<rect x="190" y="41" width="18" height="18" transform="rotate(90 190 41)" fill="#5F5F5F" fill-opacity="0.12"/>
<rect x="233" y="41" width="18" height="18" transform="rotate(90 233 41)" fill="#5F5F5F" fill-opacity="0.12"/>
<rect x="276" y="41" width="18" height="18" transform="rotate(90 276 41)" fill="#5F5F5F" fill-opacity="0.12"/>
<rect x="319" y="41" width="18" height="18" transform="rotate(90 319 41)" fill="#5F5F5F" fill-opacity="0.12"/>
<rect x="362" y="41" width="18" height="18" transform="rotate(90 362 41)" fill="#5F5F5F" fill-opacity="0.12"/>
<rect x="405" y="41" width="17.063" height="18" transform="rotate(90 405 41)" fill="#5F5F5F" fill-opacity="0.12"/>
<rect x="448" y="41" width="17.063" height="18" transform="rotate(90 448 41)" fill="#5F5F5F" fill-opacity="0.12"/>
<rect x="491" y="41" width="18" height="18" transform="rotate(90 491 41)" fill="#5F5F5F" fill-opacity="0.12"/>
<rect x="534" y="41" width="18" height="18" transform="rotate(90 534 41)" fill="#5F5F5F" fill-opacity="0.12"/>
<rect x="577" y="41" width="18" height="18" transform="rotate(90 577 41)" fill="#5F5F5F" fill-opacity="0.12"/>
<rect x="620" y="41" width="18" height="18" transform="rotate(90 620 41)" fill="#5F5F5F" fill-opacity="0.12"/>
<rect x="663" y="41" width="18" height="18" transform="rotate(90 663 41)" fill="#5F5F5F" fill-opacity="0.12"/>
<rect x="706" y="41" width="18" height="18" transform="rotate(90 706 41)" fill="#5F5F5F" fill-opacity="0.12"/>
<rect x="749" y="41" width="18" height="18" transform="rotate(90 749 41)" fill="#5F5F5F" fill-opacity="0.12"/>
<rect x="792" y="41" width="18" height="18" transform="rotate(90 792 41)" fill="#5F5F5F" fill-opacity="0.12"/>
<rect x="18" y="82" width="18" height="18" transform="rotate(90 18 82)" fill="#5F5F5F" fill-opacity="0.12"/>
<rect x="61" y="82" width="18" height="18" transform="rotate(90 61 82)" fill="#5F5F5F" fill-opacity="0.12"/>
<rect x="104" y="82" width="18" height="18" transform="rotate(90 104 82)" fill="#5F5F5F" fill-opacity="0.12"/>
<rect x="147" y="82" width="18" height="18" transform="rotate(90 147 82)" fill="#5F5F5F" fill-opacity="0.12"/>
<rect x="190" y="82" width="18" height="18" transform="rotate(90 190 82)" fill="#5F5F5F" fill-opacity="0.12"/>
<rect x="233" y="82" width="18" height="18" transform="rotate(90 233 82)" fill="#5F5F5F" fill-opacity="0.12"/>
<rect x="276" y="82" width="18" height="18" transform="rotate(90 276 82)" fill="#5F5F5F" fill-opacity="0.12"/>
<rect x="319" y="82" width="18" height="18" transform="rotate(90 319 82)" fill="#5F5F5F" fill-opacity="0.12"/>
<rect x="362" y="82" width="18" height="18" transform="rotate(90 362 82)" fill="#5F5F5F" fill-opacity="0.12"/>
<rect x="405" y="82" width="17.063" height="18" transform="rotate(90 405 82)" fill="#5F5F5F" fill-opacity="0.12"/>
<rect x="448" y="82" width="17.063" height="18" transform="rotate(90 448 82)" fill="#5F5F5F" fill-opacity="0.12"/>
<rect x="491" y="82" width="18" height="18" transform="rotate(90 491 82)" fill="#5F5F5F" fill-opacity="0.12"/>
<rect x="534" y="82" width="18" height="18" transform="rotate(90 534 82)" fill="#5F5F5F" fill-opacity="0.12"/>
<rect x="577" y="82" width="18" height="18" transform="rotate(90 577 82)" fill="#5F5F5F" fill-opacity="0.12"/>
<rect x="620" y="82" width="18" height="18" transform="rotate(90 620 82)" fill="#5F5F5F" fill-opacity="0.12"/>
<rect x="663" y="82" width="18" height="18" transform="rotate(90 663 82)" fill="#5F5F5F" fill-opacity="0.12"/>
<rect x="706" y="82" width="18" height="18" transform="rotate(90 706 82)" fill="#5F5F5F" fill-opacity="0.12"/>
<rect x="749" y="82" width="18" height="18" transform="rotate(90 749 82)" fill="#5F5F5F" fill-opacity="0.12"/>
<rect x="792" y="82" width="18" height="18" transform="rotate(90 792 82)" fill="#5F5F5F" fill-opacity="0.12"/>
<rect x="18" y="123" width="18" height="18" transform="rotate(90 18 123)" fill="#5F5F5F" fill-opacity="0.12"/>
<rect x="61" y="123" width="18" height="18" transform="rotate(90 61 123)" fill="#5F5F5F" fill-opacity="0.12"/>
<rect x="104" y="123" width="18" height="18" transform="rotate(90 104 123)" fill="#5F5F5F" fill-opacity="0.12"/>
<rect x="147" y="123" width="18" height="18" transform="rotate(90 147 123)" fill="#5F5F5F" fill-opacity="0.12"/>
<rect x="190" y="123" width="18" height="18" transform="rotate(90 190 123)" fill="#5F5F5F" fill-opacity="0.12"/>
<rect x="233" y="123" width="18" height="18" transform="rotate(90 233 123)" fill="#5F5F5F" fill-opacity="0.12"/>
<rect x="276" y="123" width="18" height="18" transform="rotate(90 276 123)" fill="#5F5F5F" fill-opacity="0.12"/>
<rect x="319" y="123" width="18" height="18" transform="rotate(90 319 123)" fill="#5F5F5F" fill-opacity="0.12"/>
<rect x="362" y="123" width="18" height="18" transform="rotate(90 362 123)" fill="#5F5F5F" fill-opacity="0.12"/>
<rect x="405" y="123" width="17.063" height="18" transform="rotate(90 405 123)" fill="#5F5F5F" fill-opacity="0.12"/>
<rect x="448" y="123" width="17.063" height="18" transform="rotate(90 448 123)" fill="#5F5F5F" fill-opacity="0.12"/>
<rect x="491" y="123" width="18" height="18" transform="rotate(90 491 123)" fill="#5F5F5F" fill-opacity="0.12"/>
<rect x="534" y="123" width="18" height="18" transform="rotate(90 534 123)" fill="#5F5F5F" fill-opacity="0.12"/>
<rect x="577" y="123" width="18" height="18" transform="rotate(90 577 123)" fill="#5F5F5F" fill-opacity="0.12"/>
<rect x="620" y="123" width="18" height="18" transform="rotate(90 620 123)" fill="#5F5F5F" fill-opacity="0.12"/>
<rect x="663" y="123" width="18" height="18" transform="rotate(90 663 123)" fill="#5F5F5F" fill-opacity="0.12"/>
<rect x="706" y="123" width="18" height="18" transform="rotate(90 706 123)" fill="#5F5F5F" fill-opacity="0.12"/>
<rect x="749" y="123" width="18" height="18" transform="rotate(90 749 123)" fill="#5F5F5F" fill-opacity="0.12"/>
<rect x="792" y="123" width="18" height="18" transform="rotate(90 792 123)" fill="#5F5F5F" fill-opacity="0.12"/>
<rect x="18" y="164" width="18" height="18" transform="rotate(90 18 164)" fill="#5F5F5F" fill-opacity="0.12"/>
<rect x="61" y="164" width="18" height="18" transform="rotate(90 61 164)" fill="#5F5F5F" fill-opacity="0.12"/>
<rect x="104" y="164" width="18" height="18" transform="rotate(90 104 164)" fill="#5F5F5F" fill-opacity="0.12"/>
<rect x="147" y="164" width="18" height="18" transform="rotate(90 147 164)" fill="#5F5F5F" fill-opacity="0.12"/>
<rect x="190" y="164" width="18" height="18" transform="rotate(90 190 164)" fill="#5F5F5F" fill-opacity="0.12"/>
<rect x="233" y="164" width="18" height="18" transform="rotate(90 233 164)" fill="#5F5F5F" fill-opacity="0.12"/>
<rect x="276" y="164" width="18" height="18" transform="rotate(90 276 164)" fill="#5F5F5F" fill-opacity="0.12"/>
<rect x="319" y="164" width="18" height="18" transform="rotate(90 319 164)" fill="#5F5F5F" fill-opacity="0.12"/>
<rect x="362" y="164" width="18" height="18" transform="rotate(90 362 164)" fill="#5F5F5F" fill-opacity="0.12"/>
<rect x="405" y="164" width="17.063" height="18" transform="rotate(90 405 164)" fill="#5F5F5F" fill-opacity="0.12"/>
<rect x="448" y="164" width="17.063" height="18" transform="rotate(90 448 164)" fill="#5F5F5F" fill-opacity="0.12"/>
<rect x="491" y="164" width="18" height="18" transform="rotate(90 491 164)" fill="#5F5F5F" fill-opacity="0.12"/>
<rect x="534" y="164" width="18" height="18" transform="rotate(90 534 164)" fill="#5F5F5F" fill-opacity="0.12"/>
<rect x="577" y="164" width="18" height="18" transform="rotate(90 577 164)" fill="#5F5F5F" fill-opacity="0.12"/>
<rect x="620" y="164" width="18" height="18" transform="rotate(90 620 164)" fill="#5F5F5F" fill-opacity="0.12"/>
<rect x="663" y="164" width="18" height="18" transform="rotate(90 663 164)" fill="#5F5F5F" fill-opacity="0.12"/>
<rect x="706" y="164" width="18" height="18" transform="rotate(90 706 164)" fill="#5F5F5F" fill-opacity="0.12"/>
<rect x="749" y="164" width="18" height="18" transform="rotate(90 749 164)" fill="#5F5F5F" fill-opacity="0.12"/>
<rect x="792" y="164" width="18" height="18" transform="rotate(90 792 164)" fill="#5F5F5F" fill-opacity="0.12"/>
<rect x="18" y="205" width="18" height="18" transform="rotate(90 18 205)" fill="#5F5F5F" fill-opacity="0.12"/>
<rect x="61" y="205" width="18" height="18" transform="rotate(90 61 205)" fill="#5F5F5F" fill-opacity="0.12"/>
<rect x="104" y="205" width="18" height="18" transform="rotate(90 104 205)" fill="#5F5F5F" fill-opacity="0.12"/>
<rect x="147" y="205" width="18" height="18" transform="rotate(90 147 205)" fill="#5F5F5F" fill-opacity="0.12"/>
<rect x="190" y="205" width="18" height="18" transform="rotate(90 190 205)" fill="#5F5F5F" fill-opacity="0.12"/>
<rect x="233" y="205" width="18" height="18" transform="rotate(90 233 205)" fill="#5F5F5F" fill-opacity="0.12"/>
<rect x="276" y="205" width="18" height="18" transform="rotate(90 276 205)" fill="#5F5F5F" fill-opacity="0.12"/>
<rect x="319" y="205" width="18" height="18" transform="rotate(90 319 205)" fill="#5F5F5F" fill-opacity="0.12"/>
<rect x="362" y="205" width="18" height="18" transform="rotate(90 362 205)" fill="#5F5F5F" fill-opacity="0.12"/>
<rect x="405" y="205" width="17.063" height="18" transform="rotate(90 405 205)" fill="#5F5F5F" fill-opacity="0.12"/>
<rect x="448" y="205" width="17.063" height="18" transform="rotate(90 448 205)" fill="#5F5F5F" fill-opacity="0.12"/>
<rect x="491" y="205" width="18" height="18" transform="rotate(90 491 205)" fill="#5F5F5F" fill-opacity="0.12"/>
<rect x="534" y="205" width="18" height="18" transform="rotate(90 534 205)" fill="#5F5F5F" fill-opacity="0.12"/>
<rect x="577" y="205" width="18" height="18" transform="rotate(90 577 205)" fill="#5F5F5F" fill-opacity="0.12"/>
<rect x="620" y="205" width="18" height="18" transform="rotate(90 620 205)" fill="#5F5F5F" fill-opacity="0.12"/>
<rect x="663" y="205" width="18" height="18" transform="rotate(90 663 205)" fill="#5F5F5F" fill-opacity="0.12"/>
<rect x="706" y="205" width="18" height="18" transform="rotate(90 706 205)" fill="#5F5F5F" fill-opacity="0.12"/>
<rect x="749" y="205" width="18" height="18" transform="rotate(90 749 205)" fill="#5F5F5F" fill-opacity="0.12"/>
<rect x="792" y="205" width="18" height="18" transform="rotate(90 792 205)" fill="#5F5F5F" fill-opacity="0.12"/>
<rect x="18" y="246" width="18" height="18" transform="rotate(90 18 246)" fill="#5F5F5F" fill-opacity="0.12"/>
<rect x="61" y="246" width="18" height="18" transform="rotate(90 61 246)" fill="#5F5F5F" fill-opacity="0.12"/>
<rect x="104" y="246" width="18" height="18" transform="rotate(90 104 246)" fill="#5F5F5F" fill-opacity="0.12"/>
<rect x="147" y="246" width="18" height="18" transform="rotate(90 147 246)" fill="#5F5F5F" fill-opacity="0.12"/>
<rect x="190" y="246" width="18" height="18" transform="rotate(90 190 246)" fill="#5F5F5F" fill-opacity="0.12"/>
<rect x="233" y="246" width="18" height="18" transform="rotate(90 233 246)" fill="#5F5F5F" fill-opacity="0.12"/>
<rect x="276" y="246" width="18" height="18" transform="rotate(90 276 246)" fill="#5F5F5F" fill-opacity="0.12"/>
<rect x="319" y="246" width="18" height="18" transform="rotate(90 319 246)" fill="#5F5F5F" fill-opacity="0.12"/>
<rect x="362" y="246" width="18" height="18" transform="rotate(90 362 246)" fill="#5F5F5F" fill-opacity="0.12"/>
<rect x="405" y="246" width="17.063" height="18" transform="rotate(90 405 246)" fill="#5F5F5F" fill-opacity="0.12"/>
<rect x="448" y="246" width="17.063" height="18" transform="rotate(90 448 246)" fill="#5F5F5F" fill-opacity="0.12"/>
<rect x="491" y="246" width="18" height="18" transform="rotate(90 491 246)" fill="#5F5F5F" fill-opacity="0.12"/>
<rect x="534" y="246" width="18" height="18" transform="rotate(90 534 246)" fill="#5F5F5F" fill-opacity="0.12"/>
<rect x="577" y="246" width="18" height="18" transform="rotate(90 577 246)" fill="#5F5F5F" fill-opacity="0.12"/>
<rect x="620" y="246" width="18" height="18" transform="rotate(90 620 246)" fill="#5F5F5F" fill-opacity="0.12"/>
<rect x="663" y="246" width="18" height="18" transform="rotate(90 663 246)" fill="#5F5F5F" fill-opacity="0.12"/>
<rect x="706" y="246" width="18" height="18" transform="rotate(90 706 246)" fill="#5F5F5F" fill-opacity="0.12"/>
<rect x="749" y="246" width="18" height="18" transform="rotate(90 749 246)" fill="#5F5F5F" fill-opacity="0.12"/>
<rect x="792" y="246" width="18" height="18" transform="rotate(90 792 246)" fill="#5F5F5F" fill-opacity="0.12"/>
</svg>
