<svg width="95" height="69" viewBox="0 0 95 69" fill="none" xmlns="http://www.w3.org/2000/svg">
<path d="M0.649902 67H17.77H61.0738C69.6207 67 77.8176 63.5759 83.8611 57.481C89.9047 51.386 93.2999 43.1195 93.2999 34.5C93.2999 25.8805 89.9047 17.614 83.8611 11.519C77.8176 5.4241 69.6207 2 61.0738 2C61.0738 2 34.6812 2 17.77 2H0.649902" stroke="white" stroke-width="3"/>
<path fill-rule="evenodd" clip-rule="evenodd" d="M50.5883 27C50.5883 27 52.5672 28.933 54.6925 31.0442L54.6814 31.0553L57.265 33.6208C57.4014 33.759 57.5349 33.8945 57.6646 34.0267C57.7505 34.1142 57.8638 34.2298 57.9454 34.3131L58.0527 34.4204L55.5709 36.8848L55.5731 36.887L50.615 41.8102L49.1825 40.3877L54.1322 35.4728H0.649902V33.3545H54.1451L49.167 28.4113L50.5883 27Z" fill="white"/>
</svg>
