<svg width="95" height="69" viewBox="0 0 95 69" fill="none" xmlns="http://www.w3.org/2000/svg">
<g opacity="0.6">
<path d="M94.65 2H77.5299L34.2261 2C25.6792 2 17.4824 5.4241 11.4388 11.519C5.39523 17.614 2 25.8805 2 34.5C1.99999 43.1195 5.39523 51.386 11.4388 57.481C17.4824 63.5759 25.6792 67 34.2261 67C34.2261 67 60.6187 67 77.5299 67H94.65" stroke="white" stroke-width="3"/>
<path fill-rule="evenodd" clip-rule="evenodd" d="M44.7122 41.8101C44.7122 41.8101 42.7332 39.877 40.6078 37.7657L40.6189 37.7548L38.0446 35.1985C37.9049 35.0571 37.7685 34.9185 37.6358 34.7834C37.5554 34.7014 37.451 34.595 37.3711 34.5134L37.2475 34.3897L39.7293 31.9253L39.7271 31.9232L44.6852 26.9999L46.1177 28.4224L41.1681 33.3373L94.65 33.3373V35.4556L41.1553 35.4556L46.1334 40.3988L44.7122 41.8101Z" fill="white"/>
</g>
</svg>
