<svg width="94" height="69" viewBox="0 0 94 69" fill="none" xmlns="http://www.w3.org/2000/svg">
<path d="M94 2H77L34 2C25.5131 2 17.3737 5.4241 11.3726 11.519C5.37142 17.614 2 25.8805 2 34.5C2 43.1195 5.37141 51.386 11.3726 57.481C17.3737 63.5759 25.5131 67 34 67C34 67 60.2075 67 77 67H94" stroke="white" stroke-width="3"/>
<path fill-rule="evenodd" clip-rule="evenodd" d="M44.4126 42.8101C44.4126 42.8101 42.4475 40.877 40.3371 38.7658L40.348 38.7548L37.7924 36.1992C37.6535 36.0575 37.5178 35.9187 37.3859 35.7834C37.3088 35.7043 37.2097 35.6024 37.1315 35.5221L37 35.3897L39.4645 32.9253L39.4623 32.9231L44.3856 27.9999L45.808 29.4224L40.8931 34.3373L94 34.3373V36.4556L40.8806 36.4556L45.8238 41.3988L44.4126 42.8101Z" fill="white"/>
</svg>
