<svg width="94" height="69" viewBox="0 0 94 69" fill="none" xmlns="http://www.w3.org/2000/svg">
<path d="M0 67H17H60C68.4869 67 76.6263 63.5759 82.6274 57.481C88.6286 51.386 92 43.1195 92 34.5C92 25.8805 88.6286 17.614 82.6274 11.519C76.6263 5.4241 68.4869 2 60 2C60 2 33.7925 2 17 2H0" stroke="white" stroke-width="3"/>
<path fill-rule="evenodd" clip-rule="evenodd" d="M49.5876 28C49.5876 28 51.5526 29.9331 53.663 32.0442L53.6521 32.0552L56.2078 34.6109C56.3466 34.7525 56.4823 34.8914 56.6143 35.0267C56.6931 35.1076 56.7951 35.2124 56.874 35.2935L57 35.4203L54.5355 37.8848L54.5377 37.8869L49.6144 42.8102L48.192 41.3877L53.1069 36.4728H0L0 34.3545H53.1195L48.1763 29.4113L49.5876 28Z" fill="white"/>
</svg>
