<svg width="812" height="357" viewBox="0 0 812 357" fill="none" xmlns="http://www.w3.org/2000/svg">
<path d="M313.788 253.994L312.632 252.362L313.788 253.994ZM811.019 12.2811L791.101 23.9678L790.939 0.874343L811.019 12.2811ZM3.98865 17.4503C11.5562 88.1666 36.186 184.536 85.2383 244.333C109.721 274.179 140.175 294.783 177.539 298.719C214.926 302.657 259.615 289.947 312.632 252.362L314.945 255.625C261.444 293.553 215.795 306.771 177.12 302.697C138.42 298.621 107.085 277.273 82.1457 246.87C32.3541 186.172 7.60797 88.8637 0.0113545 17.8759L3.98865 17.4503ZM312.632 252.362C379.08 205.256 409.825 164.667 418.38 132.07C422.645 115.822 421.403 101.544 416.319 89.3356C411.227 77.1069 402.227 66.8313 390.792 58.7107C367.883 42.4423 335.419 34.99 306.141 37.8531C276.828 40.7196 251.29 53.8343 241.407 78.0445L237.704 76.5328C248.377 50.386 275.684 36.8124 305.752 33.8721C335.856 30.9282 369.311 38.5501 393.108 55.4494C405.026 63.9127 414.576 74.7444 420.012 87.7979C425.456 100.872 426.72 116.051 422.249 133.086C413.334 167.056 381.645 208.341 314.945 255.625L312.632 252.362ZM241.407 78.0445C221.003 128.029 213.611 201.589 224.687 260.047C230.226 289.278 240.338 314.493 255.52 331.109C270.602 347.615 290.765 355.739 316.918 350.784L317.663 354.714C290.105 359.936 268.556 351.305 252.567 333.807C236.679 316.418 226.363 290.38 220.757 260.791C209.543 201.609 216.995 127.263 237.704 76.5328L241.407 78.0445ZM316.918 350.784C343.071 345.829 369.564 324.542 396.145 294.413C422.666 264.353 448.967 225.86 474.823 187.053C500.643 148.299 526.028 109.218 550.624 78.188C562.927 62.6662 575.077 49.1016 587.035 38.5682C598.98 28.0463 610.838 20.4559 622.567 17.0251L623.69 20.8642C612.748 24.065 601.402 31.2437 589.679 41.5698C577.969 51.8845 565.986 65.2469 553.758 80.6727C529.293 111.538 504.028 150.434 478.152 189.271C452.311 228.056 425.87 266.768 399.145 297.06C372.48 327.283 345.222 349.493 317.663 354.714L316.918 350.784ZM622.567 17.0251C705.503 -7.23534 735.817 9.17573 793.069 10.4075L792.983 14.4066C734.6 13.1505 705.85 -3.16907 623.69 20.8642L622.567 17.0251Z" fill="white"/>
</svg>
