<svg width="365" height="231" viewBox="0 0 365 231" fill="none" xmlns="http://www.w3.org/2000/svg">
<rect x="44" y="230" width="18" height="18" transform="rotate(-90 44 230)" fill="#5F5F5F" fill-opacity="0.12"/>
<rect x="130" y="230" width="19" height="18" transform="rotate(-90 130 230)" fill="#5F5F5F" fill-opacity="0.12"/>
<rect x="346" y="230" width="18" height="19" transform="rotate(-90 346 230)" fill="#98EC65" fill-opacity="0.12"/>
<rect x="87" y="230" width="18" height="18" transform="rotate(-90 87 230)" fill="#5F5F5F" fill-opacity="0.12"/>
<rect y="230" width="18" height="19" transform="rotate(-90 0 230)" fill="#5F5F5F" fill-opacity="0.12"/>
<rect x="173" y="230" width="19" height="18" transform="rotate(-90 173 230)" fill="#5F5F5F" fill-opacity="0.12"/>
<rect x="216" y="230" width="18" height="19" transform="rotate(-90 216 230)" fill="#5F5F5F" fill-opacity="0.12"/>
<rect x="260" y="212" width="18" height="18" fill="#5F5F5F" fill-opacity="0.12"/>
<rect x="303" y="212" width="18" height="19" fill="#5F5F5F" fill-opacity="0.12"/>
<rect y="81" width="18" height="19" fill="#5F5F5F" fill-opacity="0.12"/>
<rect y="38" width="18" height="19" fill="#5F5F5F" fill-opacity="0.12"/>
<rect width="18" height="19" fill="#98EC65" fill-opacity="0.12"/>
<rect y="124" width="18" height="19" fill="#5F5F5F" fill-opacity="0.12"/>
<rect y="168" width="18" height="19" fill="#5F5F5F" fill-opacity="0.12"/>
</svg>
