<svg width="258" height="259" viewBox="0 0 258 259" fill="none" xmlns="http://www.w3.org/2000/svg">
<rect y="243.382" width="14" height="14.7688" fill="#98EC65" fill-opacity="0.12"/>
<rect y="208.613" width="14" height="14.7688" fill="#5F5F5F" fill-opacity="0.12"/>
<rect y="173.844" width="14" height="14.7688" fill="#5F5F5F" fill-opacity="0.12"/>
<rect y="139.075" width="14" height="14.7688" fill="#5F5F5F" fill-opacity="0.12"/>
<rect y="104.307" width="14" height="14.7688" fill="#5F5F5F" fill-opacity="0.12"/>
<rect y="69.5378" width="14" height="14.7688" fill="#5F5F5F" fill-opacity="0.12"/>
<rect y="34.769" width="14" height="14.7688" fill="#5F5F5F" fill-opacity="0.12"/>
<rect y="0.000244141" width="14" height="14.7688" fill="#5F5F5F" fill-opacity="0.12"/>
<rect x="242.613" y="14.1504" width="14" height="14.7688" transform="rotate(-90 242.613 14.1504)" fill="#98EC65" fill-opacity="0.12"/>
<rect x="207.844" y="14.1504" width="14" height="14.7688" transform="rotate(-90 207.844 14.1504)" fill="#5F5F5F" fill-opacity="0.12"/>
<rect x="173.075" y="14.1504" width="14" height="14.7688" transform="rotate(-90 173.075 14.1504)" fill="#5F5F5F" fill-opacity="0.12"/>
<rect x="138.306" y="14.1504" width="14" height="14.7688" transform="rotate(-90 138.306 14.1504)" fill="#5F5F5F" fill-opacity="0.12"/>
<rect x="103.537" y="14.1504" width="14" height="14.7688" transform="rotate(-90 103.537 14.1504)" fill="#5F5F5F" fill-opacity="0.12"/>
<rect x="68.7687" y="14.1504" width="14" height="14.7688" transform="rotate(-90 68.7687 14.1504)" fill="#5F5F5F" fill-opacity="0.12"/>
<rect x="34" y="14.1504" width="14" height="14.7688" transform="rotate(-90 34 14.1504)" fill="#5F5F5F" fill-opacity="0.12"/>
</svg>
