<svg width="365" height="188" viewBox="0 0 365 188" fill="none" xmlns="http://www.w3.org/2000/svg">
<rect x="44" y="187" width="18" height="18" transform="rotate(-90 44 187)" fill="#5F5F5F" fill-opacity="0.12"/>
<rect x="130" y="187" width="19" height="18" transform="rotate(-90 130 187)" fill="#5F5F5F" fill-opacity="0.12"/>
<rect x="346" y="187" width="18" height="19" transform="rotate(-90 346 187)" fill="#98EC65" fill-opacity="0.12"/>
<rect x="87" y="187" width="18" height="18" transform="rotate(-90 87 187)" fill="#5F5F5F" fill-opacity="0.12"/>
<rect y="187" width="18" height="19" transform="rotate(-90 0 187)" fill="#5F5F5F" fill-opacity="0.12"/>
<rect x="173" y="187" width="19" height="18" transform="rotate(-90 173 187)" fill="#5F5F5F" fill-opacity="0.12"/>
<rect x="216" y="187" width="18" height="19" transform="rotate(-90 216 187)" fill="#5F5F5F" fill-opacity="0.12"/>
<rect x="260" y="169" width="18" height="18" fill="#5F5F5F" fill-opacity="0.12"/>
<rect x="303" y="169" width="18" height="19" fill="#5F5F5F" fill-opacity="0.12"/>
<rect y="81" width="18" height="19" fill="#5F5F5F" fill-opacity="0.12"/>
<rect y="38" width="18" height="19" fill="#5F5F5F" fill-opacity="0.12"/>
<rect width="18" height="19" fill="#98EC65" fill-opacity="0.12"/>
<rect y="125" width="18" height="19" fill="#5F5F5F" fill-opacity="0.12"/>
</svg>
