<svg width="160" height="267" viewBox="0 0 160 267" fill="none" xmlns="http://www.w3.org/2000/svg">
<g filter="url(#filter0_d_795_2529)">
<rect x="141.075" y="243.381" width="14" height="14.7688" fill="#98EC65" fill-opacity="0.12"/>
<rect x="141.075" y="208.613" width="14" height="14.7688" fill="#5F5F5F" fill-opacity="0.12"/>
<rect x="141.075" y="173.844" width="14" height="14.7688" fill="#5F5F5F" fill-opacity="0.12"/>
<rect x="141.075" y="139.075" width="14" height="14.7688" fill="#5F5F5F" fill-opacity="0.12"/>
<rect x="141.075" y="104.306" width="14" height="14.7688" fill="#5F5F5F" fill-opacity="0.12"/>
<rect x="141.075" y="69.5375" width="14" height="14.7688" fill="#5F5F5F" fill-opacity="0.12"/>
<rect x="141.075" y="34.7688" width="14" height="14.7688" fill="#5F5F5F" fill-opacity="0.12"/>
<rect x="141.075" width="14" height="14.7688" fill="#5F5F5F" fill-opacity="0.12"/>
<rect x="4" y="14.1501" width="14" height="14.7688" transform="rotate(-90 4 14.1501)" fill="#98EC65" fill-opacity="0.12"/>
<rect x="38.7688" y="14.1501" width="14" height="14.7688" transform="rotate(-90 38.7688 14.1501)" fill="#5F5F5F" fill-opacity="0.12"/>
<rect x="73.5376" y="14.1501" width="14" height="14.7688" transform="rotate(-90 73.5376 14.1501)" fill="#5F5F5F" fill-opacity="0.12"/>
<rect x="108.306" y="14.1501" width="14" height="14.7688" transform="rotate(-90 108.306 14.1501)" fill="#5F5F5F" fill-opacity="0.12"/>
</g>
<defs>
<filter id="filter0_d_795_2529" x="0" y="0" width="159.075" height="266.15" filterUnits="userSpaceOnUse" color-interpolation-filters="sRGB">
<feFlood flood-opacity="0" result="BackgroundImageFix"/>
<feColorMatrix in="SourceAlpha" type="matrix" values="0 0 0 0 0 0 0 0 0 0 0 0 0 0 0 0 0 0 127 0" result="hardAlpha"/>
<feOffset dy="4"/>
<feGaussianBlur stdDeviation="2"/>
<feComposite in2="hardAlpha" operator="out"/>
<feColorMatrix type="matrix" values="0 0 0 0 0 0 0 0 0 0 0 0 0 0 0 0 0 0 0.25 0"/>
<feBlend mode="normal" in2="BackgroundImageFix" result="effect1_dropShadow_795_2529"/>
<feBlend mode="normal" in="SourceGraphic" in2="effect1_dropShadow_795_2529" result="shape"/>
</filter>
</defs>
</svg>
