<svg width="368" height="236" viewBox="0 0 368 236" fill="none" xmlns="http://www.w3.org/2000/svg">
<rect y="87" width="19" height="18" fill="#5F5F5F" fill-opacity="0.12"/>
<rect y="217" width="18" height="19" fill="#98EC65" fill-opacity="0.12"/>
<rect y="44" width="18" height="18" fill="#5F5F5F" fill-opacity="0.12"/>
<rect width="18" height="19" fill="#5F5F5F" fill-opacity="0.12"/>
<rect y="130" width="19" height="18" fill="#5F5F5F" fill-opacity="0.12"/>
<rect y="173" width="18" height="19" fill="#5F5F5F" fill-opacity="0.12"/>
<rect x="149" width="18" height="19" transform="rotate(90 149 0)" fill="#5F5F5F" fill-opacity="0.12"/>
<rect x="192" width="18" height="19" transform="rotate(90 192 0)" fill="#5F5F5F" fill-opacity="0.12"/>
<rect x="236" width="18" height="19" transform="rotate(90 236 0)" fill="#5F5F5F" fill-opacity="0.12"/>
<rect x="280" width="18" height="19" transform="rotate(90 280 0)" fill="#5F5F5F" fill-opacity="0.12"/>
<rect x="324" width="18" height="19" transform="rotate(90 324 0)" fill="#5F5F5F" fill-opacity="0.12"/>
<rect x="368" width="18" height="19" transform="rotate(90 368 0)" fill="#98EC65" fill-opacity="0.12"/>
<rect x="106" width="18" height="19" transform="rotate(90 106 0)" fill="#5F5F5F" fill-opacity="0.12"/>
<rect x="62" width="18" height="19" transform="rotate(90 62 0)" fill="#5F5F5F" fill-opacity="0.12"/>
</svg>
