<svg width="259" height="258" viewBox="0 0 259 258" fill="none" xmlns="http://www.w3.org/2000/svg">
<rect x="14.7688" width="14" height="14.7688" transform="rotate(90 14.7688 0)" fill="#98EC65" fill-opacity="0.12"/>
<rect x="49.5376" width="14" height="14.7688" transform="rotate(90 49.5376 0)" fill="#5F5F5F" fill-opacity="0.12"/>
<rect x="84.3064" width="14" height="14.7688" transform="rotate(90 84.3064 0)" fill="#5F5F5F" fill-opacity="0.12"/>
<rect x="119.075" width="14" height="14.7688" transform="rotate(90 119.075 0)" fill="#5F5F5F" fill-opacity="0.12"/>
<rect x="153.844" width="14" height="14.7688" transform="rotate(90 153.844 0)" fill="#5F5F5F" fill-opacity="0.12"/>
<rect x="188.613" width="14" height="14.7688" transform="rotate(90 188.613 0)" fill="#5F5F5F" fill-opacity="0.12"/>
<rect x="223.381" width="14" height="14.7688" transform="rotate(90 223.381 0)" fill="#5F5F5F" fill-opacity="0.12"/>
<rect x="258.15" width="14" height="14.7688" transform="rotate(90 258.15 0)" fill="#5F5F5F" fill-opacity="0.12"/>
<rect x="244" y="242.613" width="14" height="14.7688" fill="#98EC65" fill-opacity="0.12"/>
<rect x="244" y="207.844" width="14" height="14.7688" fill="#5F5F5F" fill-opacity="0.12"/>
<rect x="244" y="173.075" width="14" height="14.7688" fill="#5F5F5F" fill-opacity="0.12"/>
<rect x="244" y="138.306" width="14" height="14.7688" fill="#5F5F5F" fill-opacity="0.12"/>
<rect x="244" y="103.537" width="14" height="14.7688" fill="#5F5F5F" fill-opacity="0.12"/>
<rect x="244" y="68.7687" width="14" height="14.7688" fill="#5F5F5F" fill-opacity="0.12"/>
<rect x="244" y="34" width="14" height="14.7688" fill="#5F5F5F" fill-opacity="0.12"/>
</svg>
