<svg width="323" height="274" viewBox="0 0 323 274" fill="none" xmlns="http://www.w3.org/2000/svg">
<rect x="87.9463" y="274" width="18" height="17.989" transform="rotate(-90 87.9463 274)" fill="#5F5F5F" fill-opacity="0.12"/>
<rect x="43.9736" y="274" width="18" height="18.9884" transform="rotate(-90 43.9736 274)" fill="#5F5F5F" fill-opacity="0.12"/>
<rect x="173.894" y="274" width="19" height="17.989" transform="rotate(-90 173.894 274)" fill="#5F5F5F" fill-opacity="0.12"/>
<rect x="303.814" y="274" width="18" height="18.9884" transform="rotate(-90 303.814 274)" fill="#98EC65" fill-opacity="0.12"/>
<rect x="130.92" y="274" width="18" height="17.989" transform="rotate(-90 130.92 274)" fill="#5F5F5F" fill-opacity="0.12"/>
<rect y="274" width="18" height="18.9884" transform="rotate(-90 0 274)" fill="#5F5F5F" fill-opacity="0.12"/>
<rect x="216.867" y="274" width="19" height="17.989" transform="rotate(-90 216.867 274)" fill="#5F5F5F" fill-opacity="0.12"/>
<rect x="259.841" y="274" width="18" height="18.9884" transform="rotate(-90 259.841 274)" fill="#5F5F5F" fill-opacity="0.12"/>
<rect y="87" width="18.9884" height="18" fill="#5F5F5F" fill-opacity="0.12"/>
<rect y="217" width="17.989" height="19" fill="#5F5F5F" fill-opacity="0.12"/>
<rect y="44" width="17.989" height="18" fill="#5F5F5F" fill-opacity="0.12"/>
<rect width="17.989" height="19" fill="#98EC65" fill-opacity="0.12"/>
<rect y="130" width="18.9884" height="18" fill="#5F5F5F" fill-opacity="0.12"/>
<rect y="173" width="17.989" height="19" fill="#5F5F5F" fill-opacity="0.12"/>
</svg>
