<svg width="223" height="162" viewBox="0 0 223 162" fill="none" xmlns="http://www.w3.org/2000/svg">
<rect x="179" y="32" width="18" height="19" transform="rotate(-180 179 32)" fill="#5F5F5F" fill-opacity="0.12"/>
<rect x="161" y="162" width="19" height="18" transform="rotate(-90 161 162)" fill="#5F5F5F" fill-opacity="0.12"/>
<rect x="161" y="118" width="18" height="18" transform="rotate(-90 161 118)" fill="#5F5F5F" fill-opacity="0.12"/>
<rect x="205" y="162" width="18" height="18" transform="rotate(-90 205 162)" fill="#5F5F5F" fill-opacity="0.12"/>
<rect x="179" y="75" width="18" height="18" transform="rotate(-180 179 75)" fill="#5F5F5F" fill-opacity="0.12"/>
<rect x="134" y="32" width="19" height="18" transform="rotate(-180 134 32)" fill="#5F5F5F" fill-opacity="0.12"/>
<rect x="90" y="32" width="18" height="18" transform="rotate(-180 90 32)" fill="#5F5F5F" fill-opacity="0.12"/>
<rect x="1.5" y="1.5" width="45" height="42" transform="matrix(-4.37114e-08 1 1 4.37114e-08 -6.55671e-08 6.55671e-08)" stroke="#98EC65" stroke-opacity="0.2" stroke-width="3"/>
</svg>
