<svg width="193" height="191" viewBox="0 0 193 191" fill="none" xmlns="http://www.w3.org/2000/svg">
<rect x="131" y="129" width="18" height="18" fill="#5F5F5F" fill-opacity="0.12"/>
<rect x="44.001" y="172" width="19" height="19" fill="#5F5F5F" fill-opacity="0.12"/>
<rect x="88" y="129" width="18" height="18" fill="#5F5F5F" fill-opacity="0.12"/>
<rect x="88" y="172" width="18" height="19" fill="#5F5F5F" fill-opacity="0.12"/>
<rect x="44.001" y="129" width="19" height="18" fill="#5F5F5F" fill-opacity="0.12"/>
<rect x="149" y="86" width="18" height="18" transform="rotate(90 149 86)" fill="#5F5F5F" fill-opacity="0.12"/>
<rect x="149" y="43" width="18" height="18" transform="rotate(90 149 43)" fill="#5F5F5F" fill-opacity="0.12"/>
<rect x="149" width="18" height="18" transform="rotate(90 149 0)" fill="#98EC65" fill-opacity="0.12"/>
<rect x="193" y="86" width="18" height="19" transform="rotate(90 193 86)" fill="#98EC65" fill-opacity="0.12"/>
<rect x="106" y="42" width="19" height="18" transform="rotate(90 106 42)" fill="#5F5F5F" fill-opacity="0.12"/>
<rect x="63" y="86" width="18" height="19" transform="rotate(90 63 86)" fill="#5F5F5F" fill-opacity="0.12"/>
<rect x="19" y="86" width="18" height="19" transform="rotate(90 19 86)" fill="#5F5F5F" fill-opacity="0.12"/>
<rect x="106" y="86" width="18" height="18" transform="rotate(90 106 86)" fill="#5F5F5F" fill-opacity="0.12"/>
<rect x="44.001" y="172" width="19" height="19" fill="#98EC65" fill-opacity="0.12"/>
<rect x="106" y="86" width="18" height="18" transform="rotate(90 106 86)" fill="#5F5F5F" fill-opacity="0.12"/>
</svg>
